<svg width="197" height="37" viewBox="0 0 197 37" fill="none" xmlns="http://www.w3.org/2000/svg">
<path fill-rule="evenodd" clip-rule="evenodd" d="M12.8774 0H0V8.77029L3.84349 8.77079L8.55984 8.76772C8.97708 8.76745 9.34753 8.53908 9.55417 8.21058C10.0466 7.42777 10.7378 6.7587 11.5744 6.26097C12.6031 5.64892 13.8068 5.32262 15.0374 5.32218C16.2033 5.32214 17.3463 5.61551 18.3391 6.16959C18.8497 6.45456 19.3102 6.80273 19.7084 7.20208C20.2296 7.72463 19.749 8.46608 18.9718 8.47102L16.273 8.48816C15.9013 8.49053 15.5587 8.6712 15.3728 8.96295L14.3411 10.5824C14.1537 10.8764 14.1539 11.2388 14.3415 11.5327L15.3689 13.1423C15.5573 13.4376 15.906 13.6186 16.2823 13.6165L18.9677 13.6017C19.7487 13.5974 20.2386 14.3391 19.7162 14.8654C19.3186 15.266 18.8584 15.6155 18.3479 15.9018C17.3513 16.4607 16.2024 16.7564 15.0304 16.7558C12.6693 16.7546 10.6141 15.5824 9.53151 13.8448C9.32528 13.5138 8.95318 13.2832 8.53372 13.2832L3.84349 13.2826H0V36.706H8.47486V22.2327L18.3805 36.706H28.7265L17.445 21.6824C19.4812 21.1871 21.2972 20.0865 22.5629 18.8758C24.9293 16.5645 25.4246 13.7029 25.4246 11.3915C25.4246 7.3192 23.7736 4.67768 22.2327 3.19183C20.4717 1.54088 17.5551 0 12.8774 0Z" fill="#54187E"/>
<path d="M51.8894 30.2285L45.9128 20.1408H41.4562V30.2285H39.038V6.08024H46.2928C48.9875 6.08024 51.0257 6.72511 52.4076 8.01486C53.8125 9.30461 54.515 10.9974 54.515 13.0933C54.515 14.8436 54.0083 16.3407 52.9949 17.5843C52.0046 18.805 50.5306 19.5996 48.5729 19.9681L54.7913 30.2285H51.8894ZM41.4562 18.1716H46.3274C48.2159 18.1716 49.6323 17.711 50.5766 16.7898C51.5439 15.8685 52.0276 14.6363 52.0276 13.0933C52.0276 11.5041 51.567 10.2834 50.6457 9.43128C49.7245 8.5561 48.2735 8.1185 46.2928 8.1185H41.4562V18.1716Z" fill="#1E1E1E"/>
<path d="M74.3073 19.8299C74.3073 20.659 74.2843 21.2924 74.2383 21.73H58.5885C58.6576 23.1579 59.0031 24.3786 59.6249 25.3919C60.2468 26.4053 61.0644 27.1769 62.0778 27.7066C63.0911 28.2133 64.1966 28.4666 65.3943 28.4666C66.9604 28.4666 68.2732 28.0866 69.3326 27.3266C70.4151 26.5665 71.129 25.5416 71.4745 24.2519H74.031C73.5703 26.0944 72.58 27.6029 71.0599 28.7775C69.5629 29.9291 67.6743 30.5049 65.3943 30.5049C63.6208 30.5049 62.0317 30.1133 60.6268 29.3303C59.2219 28.5242 58.1164 27.3957 57.3103 25.9447C56.5272 24.4707 56.1357 22.7549 56.1357 20.7972C56.1357 18.8395 56.5272 17.1237 57.3103 15.6497C58.0933 14.1757 59.1873 13.0472 60.5922 12.2641C61.9971 11.4811 63.5978 11.0895 65.3943 11.0895C67.1907 11.0895 68.7568 11.4811 70.0926 12.2641C71.4515 13.0472 72.4879 14.1066 73.2018 15.4424C73.9388 16.7552 74.3073 18.2177 74.3073 19.8299ZM71.8545 19.7608C71.8775 18.3559 71.5897 17.1583 70.9908 16.1679C70.4151 15.1776 69.6205 14.4291 68.6071 13.9224C67.5937 13.4157 66.4882 13.1623 65.2906 13.1623C63.4942 13.1623 61.9626 13.7381 60.6959 14.8897C59.4292 16.0413 58.7267 17.665 58.5885 19.7608H71.8545Z" fill="#1E1E1E"/>
<path d="M83.1538 30.5049C80.9888 30.5049 79.2154 30.0097 77.8336 29.0194C76.4747 28.006 75.7147 26.6356 75.5535 24.9083H78.0408C78.156 25.9677 78.6512 26.8314 79.5264 27.4993C80.4246 28.1442 81.6222 28.4666 83.1192 28.4666C84.432 28.4666 85.4569 28.1557 86.1939 27.5338C86.9539 26.912 87.3339 26.1405 87.3339 25.2192C87.3339 24.5743 87.1267 24.0446 86.7121 23.63C86.2975 23.2155 85.7678 22.893 85.1229 22.6627C84.5011 22.4094 83.6489 22.1445 82.5665 21.8682C81.1616 21.4997 80.0215 21.1312 79.1463 20.7627C78.2711 20.3942 77.5226 19.8529 76.9008 19.139C76.302 18.402 76.0026 17.4231 76.0026 16.2025C76.0026 15.2812 76.2789 14.4291 76.8317 13.646C77.3844 12.8629 78.1675 12.2411 79.1809 11.7805C80.1943 11.3198 81.3458 11.0895 82.6356 11.0895C84.6623 11.0895 86.2975 11.6077 87.5412 12.6441C88.7849 13.6575 89.4528 15.0624 89.5449 16.8589H87.1267C87.0576 15.7534 86.62 14.8667 85.8139 14.1988C85.0308 13.5078 83.9484 13.1623 82.5665 13.1623C81.3458 13.1623 80.3555 13.4502 79.5954 14.026C78.8354 14.6018 78.4554 15.3158 78.4554 16.1679C78.4554 16.9049 78.6742 17.5153 79.1118 17.9989C79.5724 18.4595 80.1367 18.828 80.8046 19.1044C81.4725 19.3578 82.3707 19.6456 83.4992 19.9681C84.8581 20.3366 85.9406 20.6936 86.7466 21.039C87.5527 21.3845 88.2437 21.8912 88.8195 22.5591C89.3952 23.227 89.6946 24.1137 89.7177 25.2192C89.7177 26.2326 89.4413 27.1423 88.8886 27.9484C88.3358 28.7315 87.5643 29.3533 86.5739 29.8139C85.5836 30.2746 84.4435 30.5049 83.1538 30.5049Z" fill="#1E1E1E"/>
<path d="M100.454 30.5049C98.6803 30.5049 97.0796 30.1133 95.6516 29.3303C94.2467 28.5242 93.1297 27.3957 92.3006 25.9447C91.4945 24.4707 91.0915 22.7549 91.0915 20.7972C91.0915 18.8395 91.506 17.1352 92.3351 15.6843C93.1643 14.2103 94.2928 13.0817 95.7207 12.2987C97.1487 11.4926 98.7493 11.0895 100.523 11.0895C102.296 11.0895 103.897 11.4926 105.325 12.2987C106.776 13.0817 107.904 14.2103 108.71 15.6843C109.539 17.1352 109.954 18.8395 109.954 20.7972C109.954 22.7318 109.539 24.4361 108.71 25.9101C107.881 27.3841 106.741 28.5242 105.29 29.3303C103.839 30.1133 102.227 30.5049 100.454 30.5049ZM100.454 28.3975C101.697 28.3975 102.849 28.1211 103.908 27.5684C104.968 26.9926 105.82 26.1405 106.465 25.0119C107.133 23.8604 107.467 22.4555 107.467 20.7972C107.467 19.139 107.144 17.7456 106.499 16.617C105.854 15.4655 105.002 14.6133 103.943 14.0606C102.883 13.4848 101.732 13.1969 100.488 13.1969C99.2445 13.1969 98.093 13.4848 97.0335 14.0606C95.9741 14.6133 95.1219 15.4655 94.4771 16.617C93.8552 17.7456 93.5443 19.139 93.5443 20.7972C93.5443 22.4555 93.8552 23.8604 94.4771 25.0119C95.1219 26.1405 95.9626 26.9926 96.999 27.5684C98.0584 28.1211 99.21 28.3975 100.454 28.3975Z" fill="#1E1E1E"/>
<path d="M114.708 4.66382V30.2285H112.289V4.66382H114.708Z" fill="#1E1E1E"/>
<path d="M124.813 27.8793L131.17 11.3659H133.726L126.161 30.2285H123.431L115.866 11.3659H118.457L124.813 27.8793Z" fill="#1E1E1E"/>
<path d="M151.997 19.8299C151.997 20.659 151.974 21.2924 151.928 21.73H136.278C136.348 23.1579 136.693 24.3786 137.315 25.3919C137.937 26.4053 138.754 27.1769 139.768 27.7066C140.781 28.2133 141.887 28.4666 143.084 28.4666C144.65 28.4666 145.963 28.0866 147.023 27.3266C148.105 26.5665 148.819 25.5416 149.164 24.2519H151.721C151.26 26.0944 150.27 27.6029 148.75 28.7775C147.253 29.9291 145.364 30.5049 143.084 30.5049C141.311 30.5049 139.722 30.1133 138.317 29.3303C136.912 28.5242 135.806 27.3957 135 25.9447C134.217 24.4707 133.826 22.7549 133.826 20.7972C133.826 18.8395 134.217 17.1237 135 15.6497C135.783 14.1757 136.877 13.0472 138.282 12.2641C139.687 11.4811 141.288 11.0895 143.084 11.0895C144.881 11.0895 146.447 11.4811 147.783 12.2641C149.141 13.0472 150.178 14.1066 150.892 15.4424C151.629 16.7552 151.997 18.2177 151.997 19.8299ZM149.544 19.7608C149.568 18.3559 149.28 17.1583 148.681 16.1679C148.105 15.1776 147.31 14.4291 146.297 13.9224C145.284 13.4157 144.178 13.1623 142.981 13.1623C141.184 13.1623 139.653 13.7381 138.386 14.8897C137.119 16.0413 136.417 17.665 136.278 19.7608H149.544Z" fill="#1E1E1E"/>
<path d="M171.553 13.5769C171.553 14.8667 171.242 16.0758 170.62 17.2043C170.022 18.3329 169.066 19.2426 167.753 19.9335C166.463 20.6245 164.828 20.9699 162.847 20.9699H158.805V30.2285H153.969V6.11479H162.847C164.713 6.11479 166.302 6.43722 167.615 7.0821C168.928 7.72697 169.907 8.61368 170.551 9.74221C171.219 10.8707 171.553 12.149 171.553 13.5769ZM162.64 17.0661C163.976 17.0661 164.966 16.7667 165.611 16.1679C166.256 15.5461 166.579 14.6824 166.579 13.5769C166.579 11.2277 165.266 10.0531 162.64 10.0531H158.805V17.0661H162.64Z" fill="#1E1E1E"/>
<path d="M190.706 20.2445C190.706 20.9354 190.66 21.5572 190.568 22.11H176.576C176.691 23.4919 177.175 24.5743 178.027 25.3574C178.879 26.1405 179.927 26.532 181.171 26.532C182.967 26.532 184.246 25.7604 185.006 24.2173H190.222C189.67 26.0598 188.61 27.5799 187.044 28.7775C185.478 29.9521 183.555 30.5394 181.275 30.5394C179.432 30.5394 177.774 30.1364 176.3 29.3303C174.849 28.5012 173.709 27.3381 172.88 25.841C172.074 24.344 171.671 22.6167 171.671 20.659C171.671 18.6783 172.074 16.9395 172.88 15.4424C173.686 13.9454 174.814 12.7938 176.265 11.9878C177.716 11.1817 179.386 10.7786 181.275 10.7786C183.094 10.7786 184.718 11.1701 186.146 11.9532C187.597 12.7363 188.714 13.8533 189.497 15.3043C190.303 16.7322 190.706 18.3789 190.706 20.2445ZM185.697 18.8626C185.674 17.6189 185.225 16.6285 184.349 15.8916C183.474 15.1315 182.403 14.7515 181.137 14.7515C179.939 14.7515 178.926 15.12 178.096 15.857C177.29 16.571 176.795 17.5728 176.611 18.8626H185.697Z" fill="#1E1E1E"/>
<path d="M197 4.66382V30.2285H192.163V4.66382H197Z" fill="#1E1E1E"/>
</svg>
